<svg width="207" height="27" viewBox="0 0 207 27" fill="none" xmlns="http://www.w3.org/2000/svg">
<g clip-path="url(#clip0_23_373)">
<path d="M13.4569 0.138272L13.4569 3.75736C13.4569 3.75736 10.9138 3.64094 8.42795 4.98218C6.02443 6.27895 3.52862 8.97156 3.55524 13.2768C3.56307 14.5424 3.85759 16.5464 4.81989 18.3262C5.65196 19.8652 6.43469 20.7152 7.69828 21.6677C8.96186 22.6203 10.0192 23.2659 12.0324 23.545C14.8375 23.6557 16.5498 23.1498 18.9918 21.3588C20.7888 20.0408 22.5608 17.4102 24.1024 15.3381C26.1371 12.603 27.7042 10.4539 27.7042 10.4539C27.7042 10.4539 28.5933 11.8 29.9079 13.51C30.6939 14.5324 31.5074 15.8167 32.5449 16.6073C33.0459 16.989 33.7717 17.4658 34.5915 17.4899C35.4113 17.514 36.0642 17.7429 37.4418 16.8479C38.5967 16.0817 39.4334 14.1466 39.0302 12.3833C38.6269 10.6201 37.2043 10.0633 35.6317 9.69694C32.1338 8.8819 26.3761 9.82355 21.1384 9.53661C16.9586 9.30762 12.6758 9.53661 12.6758 9.53661C12.6758 9.53661 11.9881 9.6767 11.4078 9.93746C9.95827 10.5888 8.32548 12.7099 9.96438 15.6407C10.1967 16.0127 10.4934 16.34 10.8405 16.6072C14.579 19.0225 17.0467 15.338 17.0467 15.338L21.1384 9.53663L28.6084 5.90005L25.4697 9.69694L19.5097 18.0249C19.5097 18.0249 17.6005 20.5724 14.9397 21.0877C12.279 21.603 9.96443 20.2221 9.96443 20.2221C9.96443 20.2221 4.93009 18.2278 5.91738 12.0293C6.90467 5.83091 12.3465 5.90005 12.3465 5.90005L23.2484 5.90005C23.2484 5.90005 25.6267 2.70274 29.2054 1.0442C30.1497 0.606491 31.5252 0.276493 32.5449 0.138273C33.7862 -0.0299491 37.2897 -0.292165 40.4942 1.07047C44.2329 2.66026 47.7798 6.32706 48.2739 12.9514C48.3759 16.0877 47.709 18.3256 46.6092 20.2221C45.0866 22.8475 42.7561 24.6857 40.5923 25.6784C37.6945 27.0079 35.0916 27 35.0916 27L35.0916 23.3658C35.0916 23.3658 38.3063 22.9865 40.4244 21.6397C41.9362 20.4605 43.2518 18.9937 43.9576 17.1992C44.5285 15.7478 44.7083 14.1301 44.7083 12.9514C44.7083 9.73682 42.4563 6.42017 39.9717 5.00587C36.7177 3.02595 33.2007 3.61296 33.2007 3.61296C33.2007 3.61296 31.8434 3.91155 30.6953 4.44721C29.5473 4.98287 28.6084 5.90003 28.6084 5.90003L35.0915 5.90003C35.0915 5.90003 36.2895 5.98025 36.8295 6.13347C44.3796 8.276 42.6765 14.948 42.3744 15.8284C42.0724 16.7087 40.4919 20.7947 35.6296 21.1744C30.7672 21.5541 27.7042 16.6072 27.7042 16.6072C27.7042 16.6072 24.726 20.3431 22.781 22.4585C21.7521 23.5776 20.5505 24.5078 19.2609 25.1696C18.1116 25.7595 16.9401 26.4341 14.5354 26.6704C9.4299 27.1721 6.33053 25.3651 4.18856 23.3658C2.04659 21.3665 6.40955e-05 17.2636 6.42697e-05 13.2769C6.44439e-05 9.29013 2.0811 5.88747 3.28389 4.52893C4.48669 3.17039 6.39658 1.91782 8.18649 1.29748C10.5889 0.464732 13.4569 0.138272 13.4569 0.138272Z" fill="white"/>
</g>
<path d="M64.4203 9.64507C64.3435 9.77945 64.2603 9.87863 64.1707 9.94262C64.0875 10.0002 63.9819 10.029 63.854 10.029C63.7196 10.029 63.5724 9.98101 63.4124 9.88503C63.2589 9.78265 63.0733 9.67067 62.8557 9.54909C62.6382 9.42751 62.3822 9.31872 62.0878 9.22274C61.7999 9.12036 61.4575 9.06916 61.0608 9.06916C60.7025 9.06916 60.3889 9.11396 60.1202 9.20354C59.8514 9.28673 59.6242 9.40511 59.4387 9.55868C59.2595 9.71226 59.1251 9.89783 59.0355 10.1154C58.946 10.3266 58.9012 10.5601 58.9012 10.8161C58.9012 11.1424 58.9908 11.4144 59.1699 11.6319C59.3555 11.8495 59.5987 12.0351 59.8994 12.1887C60.2002 12.3422 60.5425 12.4798 60.9264 12.6014C61.3104 12.723 61.7039 12.8541 62.107 12.9949C62.5102 13.1293 62.9037 13.2893 63.2876 13.4748C63.6716 13.654 64.0139 13.8844 64.3147 14.1659C64.6154 14.4411 64.8554 14.7802 65.0346 15.1834C65.2201 15.5865 65.3129 16.076 65.3129 16.6519C65.3129 17.279 65.2041 17.8677 64.9866 18.418C64.7754 18.9619 64.4619 19.4387 64.0459 19.8482C63.6364 20.2513 63.1341 20.5713 62.539 20.808C61.9439 21.0384 61.2624 21.1536 60.4945 21.1536C60.053 21.1536 59.6179 21.1088 59.1891 21.0192C58.7604 20.936 58.3477 20.8144 57.9509 20.6545C57.5606 20.4945 57.1926 20.3025 56.8471 20.0786C56.5016 19.8546 56.1944 19.605 55.9257 19.3299L56.6839 18.0917C56.7479 18.0021 56.8311 17.9285 56.9335 17.8709C57.0359 17.8069 57.1447 17.7749 57.2598 17.7749C57.4198 17.7749 57.5926 17.8421 57.7782 17.9765C57.9637 18.1045 58.1845 18.2485 58.4404 18.4084C58.6964 18.5684 58.994 18.7156 59.3331 18.85C59.6786 18.9779 60.0914 19.0419 60.5713 19.0419C61.3072 19.0419 61.8767 18.8692 62.2798 18.5236C62.6829 18.1717 62.8845 17.6693 62.8845 17.0167C62.8845 16.6519 62.7917 16.3544 62.6062 16.124C62.427 15.8936 62.187 15.7017 61.8863 15.5481C61.5855 15.3881 61.2432 15.2537 60.8592 15.145C60.4753 15.0362 60.085 14.9178 59.6882 14.7898C59.2915 14.6618 58.9012 14.5083 58.5172 14.3291C58.1333 14.1499 57.791 13.9164 57.4902 13.6284C57.1895 13.3405 56.9463 12.9821 56.7607 12.5534C56.5816 12.1183 56.492 11.584 56.492 10.9505C56.492 10.4449 56.5911 9.95222 56.7895 9.4723C56.9943 8.99238 57.2886 8.56685 57.6726 8.19571C58.0565 7.82457 58.53 7.52702 59.0931 7.30306C59.6562 7.07909 60.3025 6.96711 61.032 6.96711C61.8511 6.96711 62.6062 7.09509 63.2972 7.35105C63.9883 7.60701 64.577 7.96535 65.0634 8.42607L64.4203 9.64507ZM85.9389 7.12068L81.6292 21H79.2968L76.2637 11.5168C76.1805 11.2864 76.1037 11.0048 76.0333 10.6721C75.9949 10.8321 75.9565 10.9824 75.9181 11.1232C75.8797 11.264 75.8381 11.3952 75.7933 11.5168L72.7314 21H70.3894L66.0893 7.12068H68.249C68.4729 7.12068 68.6585 7.17508 68.8057 7.28386C68.9593 7.38624 69.0616 7.52702 69.1128 7.70619L71.474 16.0088C71.5252 16.2136 71.5732 16.4376 71.618 16.6807C71.6692 16.9175 71.7204 17.167 71.7716 17.4294C71.8228 17.1606 71.8772 16.9079 71.9348 16.6711C71.9988 16.4344 72.0659 16.2136 72.1363 16.0088L74.8623 7.70619C74.9135 7.55901 75.0127 7.42463 75.1598 7.30306C75.3134 7.18148 75.499 7.12068 75.7165 7.12068H76.4748C76.6988 7.12068 76.8812 7.17508 77.0219 7.28386C77.1627 7.39264 77.2683 7.53342 77.3387 7.70619L80.055 16.0088C80.1894 16.4056 80.311 16.8631 80.4198 17.3814C80.503 16.8759 80.5957 16.4184 80.6981 16.0088L83.0593 7.70619C83.0977 7.54621 83.1937 7.40864 83.3473 7.29346C83.5073 7.17828 83.696 7.12068 83.9136 7.12068H85.9389ZM94.0578 15.7593L92.3685 11.1424C92.2853 10.9377 92.1989 10.6945 92.1093 10.4129C92.0197 10.1314 91.9301 9.82744 91.8405 9.50109C91.7574 9.82744 91.671 10.1346 91.5814 10.4225C91.4918 10.7041 91.4054 10.9505 91.3222 11.1616L89.6425 15.7593H94.0578ZM98.617 21H96.6206C96.3966 21 96.2142 20.9456 96.0734 20.8368C95.9327 20.7216 95.8271 20.5809 95.7567 20.4145L94.7201 17.583H88.9706L87.934 20.4145C87.8828 20.5617 87.7836 20.6961 87.6364 20.8176C87.4893 20.9392 87.3069 21 87.0893 21H85.0737L90.5352 7.12068H93.1651L98.617 21ZM111.083 14.0411V19.6562C110.379 20.1745 109.627 20.5553 108.827 20.7984C108.033 21.0352 107.182 21.1536 106.274 21.1536C105.141 21.1536 104.114 20.9776 103.193 20.6257C102.278 20.2737 101.494 19.7842 100.841 19.1571C100.195 18.53 99.6956 17.7813 99.3437 16.9111C98.9917 16.0408 98.8157 15.0906 98.8157 14.0603C98.8157 13.0173 98.9853 12.0607 99.3245 11.1904C99.6636 10.3202 100.144 9.57148 100.764 8.94439C101.391 8.31729 102.15 7.83097 103.039 7.48542C103.929 7.13988 104.927 6.96711 106.034 6.96711C106.597 6.96711 107.122 7.0119 107.608 7.10149C108.101 7.19107 108.555 7.31585 108.971 7.47583C109.393 7.6294 109.777 7.81817 110.123 8.04213C110.468 8.2661 110.785 8.51246 111.073 8.78121L110.334 9.95222C110.219 10.1378 110.068 10.253 109.883 10.2978C109.697 10.3362 109.496 10.2882 109.278 10.1538C109.067 10.0322 108.856 9.91063 108.645 9.78905C108.433 9.66747 108.197 9.56188 107.934 9.4723C107.678 9.38271 107.387 9.30912 107.061 9.25153C106.741 9.19394 106.37 9.16515 105.947 9.16515C105.263 9.16515 104.642 9.28033 104.085 9.51069C103.535 9.74105 103.065 10.0706 102.674 10.4993C102.284 10.9281 101.983 11.4432 101.772 12.0447C101.561 12.6462 101.455 13.3181 101.455 14.0603C101.455 14.8538 101.567 15.5641 101.791 16.1912C102.022 16.8119 102.342 17.3398 102.751 17.7749C103.167 18.2037 103.666 18.5332 104.248 18.7636C104.831 18.9875 105.48 19.0995 106.197 19.0995C106.709 19.0995 107.166 19.0451 107.57 18.9363C107.973 18.8276 108.366 18.6804 108.75 18.4948V15.98H107.003C106.837 15.98 106.706 15.9352 106.61 15.8456C106.52 15.7497 106.475 15.6345 106.475 15.5001V14.0411H111.083ZM120.735 15.7593L119.045 11.1424C118.962 10.9377 118.876 10.6945 118.786 10.4129C118.697 10.1314 118.607 9.82744 118.517 9.50109C118.434 9.82744 118.348 10.1346 118.258 10.4225C118.169 10.7041 118.082 10.9505 117.999 11.1616L116.319 15.7593H120.735ZM125.294 21H123.297C123.073 21 122.891 20.9456 122.75 20.8368C122.61 20.7216 122.504 20.5809 122.434 20.4145L121.397 17.583H115.647L114.611 20.4145C114.56 20.5617 114.46 20.6961 114.313 20.8176C114.166 20.9392 113.984 21 113.766 21H111.751L117.212 7.12068H119.842L125.294 21ZM135.075 9.24194H130.89V21H128.308V9.24194H124.123V7.12068H135.075V9.24194ZM149.659 14.0603C149.659 15.0778 149.489 16.0216 149.15 16.8919C148.817 17.7557 148.344 18.5044 147.73 19.1379C147.115 19.7714 146.376 20.2673 145.512 20.6257C144.648 20.9776 143.689 21.1536 142.633 21.1536C141.583 21.1536 140.627 20.9776 139.763 20.6257C138.899 20.2673 138.157 19.7714 137.536 19.1379C136.922 18.5044 136.445 17.7557 136.106 16.8919C135.767 16.0216 135.597 15.0778 135.597 14.0603C135.597 13.0429 135.767 12.1023 136.106 11.2384C136.445 10.3682 136.922 9.61627 137.536 8.98278C138.157 8.34928 138.899 7.85656 139.763 7.50462C140.627 7.14628 141.583 6.96711 142.633 6.96711C143.337 6.96711 143.999 7.0503 144.62 7.21667C145.24 7.37664 145.81 7.60701 146.328 7.90776C146.847 8.20211 147.31 8.56365 147.72 8.99238C148.136 9.41471 148.488 9.88823 148.776 10.4129C149.064 10.9377 149.281 11.5072 149.429 12.1215C149.582 12.7358 149.659 13.3821 149.659 14.0603ZM147.019 14.0603C147.019 13.2989 146.917 12.6174 146.712 12.0159C146.507 11.408 146.216 10.8929 145.839 10.4705C145.461 10.0482 145 9.72506 144.457 9.50109C143.919 9.27713 143.311 9.16515 142.633 9.16515C141.955 9.16515 141.343 9.27713 140.8 9.50109C140.262 9.72506 139.801 10.0482 139.417 10.4705C139.04 10.8929 138.749 11.408 138.544 12.0159C138.339 12.6174 138.237 13.2989 138.237 14.0603C138.237 14.8218 138.339 15.5065 138.544 16.1144C138.749 16.7159 139.04 17.2278 139.417 17.6502C139.801 18.0661 140.262 18.386 140.8 18.61C141.343 18.834 141.955 18.9459 142.633 18.9459C143.311 18.9459 143.919 18.834 144.457 18.61C145 18.386 145.461 18.0661 145.839 17.6502C146.216 17.2278 146.507 16.7159 146.712 16.1144C146.917 15.5065 147.019 14.8218 147.019 14.0603ZM161.787 18.9843C162.267 18.9843 162.67 18.9267 162.996 18.8116C163.323 18.6964 163.582 18.5428 163.774 18.3508C163.972 18.1589 164.113 17.9349 164.196 17.6789C164.286 17.423 164.331 17.151 164.331 16.8631C164.331 16.5623 164.283 16.2936 164.187 16.0568C164.091 15.8137 163.94 15.6089 163.736 15.4425C163.531 15.2697 163.265 15.1386 162.939 15.049C162.619 14.9594 162.232 14.9146 161.777 14.9146H159.176V18.9843H161.787ZM159.176 9.11716V13.1293H161.23C162.113 13.1293 162.779 12.9693 163.227 12.6494C163.681 12.3294 163.908 11.8207 163.908 11.1232C163.908 10.4001 163.704 9.88503 163.294 9.57788C162.884 9.27073 162.245 9.11716 161.374 9.11716H159.176ZM161.374 7.12068C162.283 7.12068 163.06 7.20707 163.707 7.37984C164.353 7.55261 164.881 7.79897 165.29 8.11892C165.706 8.43887 166.01 8.826 166.202 9.28033C166.394 9.73465 166.49 10.2466 166.49 10.8161C166.49 11.1424 166.442 11.456 166.346 11.7567C166.25 12.0511 166.1 12.3294 165.895 12.5918C165.697 12.8477 165.441 13.0813 165.127 13.2925C164.82 13.5036 164.452 13.6828 164.024 13.83C165.93 14.2587 166.884 15.2889 166.884 16.9207C166.884 17.5094 166.772 18.0533 166.548 18.5524C166.324 19.0515 165.998 19.4834 165.569 19.8482C165.14 20.2065 164.612 20.4881 163.985 20.6929C163.358 20.8976 162.641 21 161.835 21H156.594V7.12068H161.374ZM176.338 15.7593L174.649 11.1424C174.565 10.9377 174.479 10.6945 174.389 10.4129C174.3 10.1314 174.21 9.82744 174.121 9.50109C174.038 9.82744 173.951 10.1346 173.862 10.4225C173.772 10.7041 173.686 10.9505 173.602 11.1616L171.923 15.7593H176.338ZM180.897 21H178.901C178.677 21 178.494 20.9456 178.354 20.8368C178.213 20.7216 178.107 20.5809 178.037 20.4145L177 17.583H171.251L170.214 20.4145C170.163 20.5617 170.064 20.6961 169.917 20.8176C169.769 20.9392 169.587 21 169.37 21H167.354L172.815 7.12068H175.445L180.897 21ZM189.725 9.64507C189.648 9.77945 189.565 9.87863 189.475 9.94262C189.392 10.0002 189.286 10.029 189.158 10.029C189.024 10.029 188.877 9.98101 188.717 9.88503C188.563 9.78265 188.378 9.67067 188.16 9.54909C187.943 9.42751 187.687 9.31872 187.392 9.22274C187.104 9.12036 186.762 9.06916 186.365 9.06916C186.007 9.06916 185.693 9.11396 185.425 9.20354C185.156 9.28673 184.929 9.40511 184.743 9.55868C184.564 9.71226 184.429 9.89783 184.34 10.1154C184.25 10.3266 184.206 10.5601 184.206 10.8161C184.206 11.1424 184.295 11.4144 184.474 11.6319C184.66 11.8495 184.903 12.0351 185.204 12.1887C185.505 12.3422 185.847 12.4798 186.231 12.6014C186.615 12.723 187.008 12.8541 187.411 12.9949C187.815 13.1293 188.208 13.2893 188.592 13.4748C188.976 13.654 189.318 13.8844 189.619 14.1659C189.92 14.4411 190.16 14.7802 190.339 15.1834C190.524 15.5865 190.617 16.076 190.617 16.6519C190.617 17.279 190.508 17.8677 190.291 18.418C190.08 18.9619 189.766 19.4387 189.35 19.8482C188.941 20.2513 188.438 20.5713 187.843 20.808C187.248 21.0384 186.567 21.1536 185.799 21.1536C185.357 21.1536 184.922 21.1088 184.493 21.0192C184.065 20.936 183.652 20.8144 183.255 20.6545C182.865 20.4945 182.497 20.3025 182.151 20.0786C181.806 19.8546 181.499 19.605 181.23 19.3299L181.988 18.0917C182.052 18.0021 182.135 17.9285 182.238 17.8709C182.34 17.8069 182.449 17.7749 182.564 17.7749C182.724 17.7749 182.897 17.8421 183.083 17.9765C183.268 18.1045 183.489 18.2485 183.745 18.4084C184.001 18.5684 184.298 18.7156 184.637 18.85C184.983 18.9779 185.396 19.0419 185.876 19.0419C186.612 19.0419 187.181 18.8692 187.584 18.5236C187.987 18.1717 188.189 17.6693 188.189 17.0167C188.189 16.6519 188.096 16.3544 187.911 16.124C187.731 15.8936 187.491 15.7017 187.191 15.5481C186.89 15.3881 186.548 15.2537 186.164 15.145C185.78 15.0362 185.389 14.9178 184.993 14.7898C184.596 14.6618 184.206 14.5083 183.822 14.3291C183.438 14.1499 183.095 13.9164 182.795 13.6284C182.494 13.3405 182.251 12.9821 182.065 12.5534C181.886 12.1183 181.796 11.584 181.796 10.9505C181.796 10.4449 181.896 9.95222 182.094 9.4723C182.299 8.99238 182.593 8.56685 182.977 8.19571C183.361 7.82457 183.834 7.52702 184.397 7.30306C184.961 7.07909 185.607 6.96711 186.336 6.96711C187.155 6.96711 187.911 7.09509 188.602 7.35105C189.293 7.60701 189.881 7.96535 190.368 8.42607L189.725 9.64507ZM198.456 18.9171C198.955 18.9171 199.4 18.834 199.79 18.6676C200.187 18.5012 200.52 18.2676 200.788 17.9669C201.057 17.6661 201.262 17.3014 201.403 16.8727C201.55 16.444 201.623 15.964 201.623 15.4329V7.12068H204.205V15.4329C204.205 16.2584 204.071 17.0231 203.802 17.7269C203.54 18.4244 203.159 19.0291 202.66 19.541C202.167 20.0466 201.566 20.4433 200.855 20.7312C200.145 21.0128 199.345 21.1536 198.456 21.1536C197.56 21.1536 196.757 21.0128 196.047 20.7312C195.336 20.4433 194.732 20.0466 194.233 19.541C193.74 19.0291 193.359 18.4244 193.09 17.7269C192.828 17.0231 192.697 16.2584 192.697 15.4329V7.12068H195.279V15.4233C195.279 15.9544 195.349 16.4344 195.49 16.8631C195.637 17.2918 195.845 17.6597 196.114 17.9669C196.389 18.2676 196.722 18.5012 197.112 18.6676C197.509 18.834 197.957 18.9171 198.456 18.9171Z" fill="white"/>
<defs>
<clipPath id="clip0_23_373">
<rect width="27" height="48.2841" fill="white" transform="translate(48.2839) rotate(90)"/>
</clipPath>
</defs>
</svg>
