<svg width="974" height="248" viewBox="0 0 974 248" fill="none" xmlns="http://www.w3.org/2000/svg">
<rect width="974" height="248" fill="white"/>
<g clip-path="url(#clip0_42_43986)">
<path d="M188.871 79.4609L188.871 91.5245C188.871 91.5245 180.391 91.1365 172.102 95.6073C164.088 99.9298 155.766 108.905 155.854 123.256C155.881 127.475 156.863 134.155 160.071 140.087C162.846 145.217 165.456 148.051 169.669 151.226C173.882 154.401 177.408 156.553 184.121 157.483C193.474 157.852 199.184 156.166 207.326 150.196C213.319 145.803 219.227 137.034 224.367 130.127C231.152 121.01 236.377 113.846 236.377 113.846C236.377 113.846 239.342 118.333 243.725 124.033C246.346 127.441 249.059 131.722 252.518 134.358C254.189 135.63 256.609 137.219 259.343 137.3C262.076 137.38 264.253 138.143 268.847 135.16C272.698 132.606 275.488 126.155 274.143 120.278C272.798 114.4 268.055 112.544 262.811 111.323C251.148 108.606 231.949 111.745 214.484 110.789C200.547 110.025 186.266 110.789 186.266 110.789C186.266 110.789 183.973 111.256 182.038 112.125C177.205 114.296 171.76 121.366 177.225 131.136C178 132.376 178.989 133.467 180.147 134.357C192.612 142.408 200.841 130.127 200.841 130.127L214.484 110.789L239.392 98.6668L228.927 111.323L209.054 139.083C209.054 139.083 202.688 147.575 193.815 149.292C184.943 151.01 177.225 146.407 177.225 146.407C177.225 146.407 160.439 139.759 163.731 119.098C167.023 98.4364 185.168 98.6668 185.168 98.6668L221.52 98.6668C221.52 98.6668 229.45 88.0091 241.383 82.4807C244.532 81.0216 249.118 79.9216 252.518 79.4609C256.657 78.9002 268.34 78.0261 279.025 82.5682C291.491 87.8675 303.318 100.09 304.966 122.171C305.306 132.626 303.082 140.085 299.415 146.407C294.338 155.158 286.567 161.286 279.352 164.595C269.69 169.026 261.01 169 261.01 169L261.01 156.886C261.01 156.886 271.73 155.622 278.792 151.132C283.833 147.202 288.22 142.312 290.573 136.331C292.477 131.493 293.076 126.1 293.076 122.171C293.076 111.456 285.567 100.401 277.282 95.6862C266.432 89.0865 254.705 91.0432 254.705 91.0432C254.705 91.0432 250.179 92.0385 246.351 93.824C242.523 95.6096 239.392 98.6668 239.392 98.6668L261.01 98.6668C261.01 98.6668 265.005 98.9342 266.805 99.4449C291.98 106.587 286.302 128.827 285.294 131.761C284.287 134.696 279.017 148.316 262.804 149.581C246.591 150.847 236.377 134.357 236.377 134.357C236.377 134.357 226.447 146.81 219.961 153.862C216.531 157.592 212.524 160.693 208.224 162.899C204.391 164.865 200.485 167.114 192.467 167.901C175.443 169.574 165.108 163.55 157.966 156.886C150.824 150.222 144 136.545 144 123.256C144 109.967 150.939 98.6249 154.95 94.0964C158.96 89.568 165.329 85.3927 171.297 83.3249C179.308 80.5491 188.871 79.4609 188.871 79.4609Z" fill="#5221E6"/>
</g>
<path d="M358.792 110.144C358.536 110.592 358.259 110.923 357.96 111.136C357.683 111.328 357.331 111.424 356.904 111.424C356.456 111.424 355.965 111.264 355.432 110.944C354.92 110.603 354.301 110.229 353.576 109.824C352.851 109.419 351.997 109.056 351.016 108.736C350.056 108.395 348.915 108.224 347.592 108.224C346.397 108.224 345.352 108.373 344.456 108.672C343.56 108.949 342.803 109.344 342.184 109.856C341.587 110.368 341.139 110.987 340.84 111.712C340.541 112.416 340.392 113.195 340.392 114.048C340.392 115.136 340.691 116.043 341.288 116.768C341.907 117.493 342.717 118.112 343.72 118.624C344.723 119.136 345.864 119.595 347.144 120C348.424 120.405 349.736 120.843 351.08 121.312C352.424 121.76 353.736 122.293 355.016 122.912C356.296 123.509 357.437 124.277 358.44 125.216C359.443 126.133 360.243 127.264 360.84 128.608C361.459 129.952 361.768 131.584 361.768 133.504C361.768 135.595 361.405 137.557 360.68 139.392C359.976 141.205 358.931 142.795 357.544 144.16C356.179 145.504 354.504 146.571 352.52 147.36C350.536 148.128 348.264 148.512 345.704 148.512C344.232 148.512 342.781 148.363 341.352 148.064C339.923 147.787 338.547 147.381 337.224 146.848C335.923 146.315 334.696 145.675 333.544 144.928C332.392 144.181 331.368 143.349 330.472 142.432L333 138.304C333.213 138.005 333.491 137.76 333.832 137.568C334.173 137.355 334.536 137.248 334.92 137.248C335.453 137.248 336.029 137.472 336.648 137.92C337.267 138.347 338.003 138.827 338.856 139.36C339.709 139.893 340.701 140.384 341.832 140.832C342.984 141.259 344.36 141.472 345.96 141.472C348.413 141.472 350.312 140.896 351.656 139.744C353 138.571 353.672 136.896 353.672 134.72C353.672 133.504 353.363 132.512 352.744 131.744C352.147 130.976 351.347 130.336 350.344 129.824C349.341 129.291 348.2 128.843 346.92 128.48C345.64 128.117 344.339 127.723 343.016 127.296C341.693 126.869 340.392 126.357 339.112 125.76C337.832 125.163 336.691 124.384 335.688 123.424C334.685 122.464 333.875 121.269 333.256 119.84C332.659 118.389 332.36 116.608 332.36 114.496C332.36 112.811 332.691 111.168 333.352 109.568C334.035 107.968 335.016 106.549 336.296 105.312C337.576 104.075 339.155 103.083 341.032 102.336C342.909 101.589 345.064 101.216 347.496 101.216C350.227 101.216 352.744 101.643 355.048 102.496C357.352 103.349 359.315 104.544 360.936 106.08L358.792 110.144ZM430.533 101.728L416.165 148H408.389L398.277 116.384C397.999 115.616 397.743 114.677 397.509 113.568C397.381 114.101 397.253 114.603 397.125 115.072C396.997 115.541 396.858 115.979 396.708 116.384L386.501 148H378.693L364.357 101.728H371.557C372.303 101.728 372.922 101.909 373.413 102.272C373.925 102.613 374.266 103.083 374.437 103.68L382.309 131.36C382.479 132.043 382.639 132.789 382.789 133.6C382.959 134.389 383.13 135.221 383.301 136.096C383.471 135.2 383.653 134.357 383.845 133.568C384.058 132.779 384.282 132.043 384.517 131.36L393.605 103.68C393.775 103.189 394.106 102.741 394.597 102.336C395.109 101.931 395.727 101.728 396.453 101.728H398.981C399.727 101.728 400.335 101.909 400.805 102.272C401.274 102.635 401.626 103.104 401.861 103.68L410.917 131.36C411.365 132.683 411.77 134.208 412.133 135.936C412.41 134.251 412.719 132.725 413.061 131.36L420.933 103.68C421.061 103.147 421.381 102.688 421.893 102.304C422.426 101.92 423.055 101.728 423.781 101.728H430.533ZM457.6 130.528L451.968 115.136C451.691 114.453 451.403 113.643 451.104 112.704C450.805 111.765 450.507 110.752 450.208 109.664C449.931 110.752 449.643 111.776 449.344 112.736C449.045 113.675 448.757 114.496 448.48 115.2L442.88 130.528H457.6ZM472.8 148H466.144C465.397 148 464.789 147.819 464.32 147.456C463.851 147.072 463.499 146.603 463.264 146.048L459.808 136.608H440.64L437.184 146.048C437.013 146.539 436.683 146.987 436.192 147.392C435.701 147.797 435.093 148 434.368 148H427.648L445.856 101.728H454.624L472.8 148ZM514.359 124.8V143.52C512.012 145.248 509.505 146.517 506.839 147.328C504.193 148.117 501.356 148.512 498.327 148.512C494.551 148.512 491.127 147.925 488.055 146.752C485.004 145.579 482.391 143.947 480.215 141.856C478.06 139.765 476.396 137.269 475.223 134.368C474.049 131.467 473.463 128.299 473.463 124.864C473.463 121.387 474.028 118.197 475.159 115.296C476.289 112.395 477.889 109.899 479.959 107.808C482.049 105.717 484.577 104.096 487.543 102.944C490.508 101.792 493.836 101.216 497.527 101.216C499.404 101.216 501.153 101.365 502.775 101.664C504.417 101.963 505.932 102.379 507.319 102.912C508.727 103.424 510.007 104.053 511.159 104.8C512.311 105.547 513.367 106.368 514.327 107.264L511.863 111.168C511.479 111.787 510.977 112.171 510.359 112.32C509.74 112.448 509.068 112.288 508.343 111.84C507.639 111.435 506.935 111.029 506.231 110.624C505.527 110.219 504.737 109.867 503.863 109.568C503.009 109.269 502.039 109.024 500.951 108.832C499.884 108.64 498.647 108.544 497.239 108.544C494.956 108.544 492.887 108.928 491.031 109.696C489.196 110.464 487.628 111.563 486.327 112.992C485.025 114.421 484.023 116.139 483.319 118.144C482.615 120.149 482.263 122.389 482.263 124.864C482.263 127.509 482.636 129.877 483.383 131.968C484.151 134.037 485.217 135.797 486.583 137.248C487.969 138.677 489.633 139.776 491.575 140.544C493.516 141.291 495.681 141.664 498.071 141.664C499.777 141.664 501.303 141.483 502.647 141.12C503.991 140.757 505.303 140.267 506.583 139.648V131.264H500.759C500.204 131.264 499.767 131.115 499.447 130.816C499.148 130.496 498.999 130.112 498.999 129.664V124.8H514.359ZM546.538 130.528L540.906 115.136C540.628 114.453 540.34 113.643 540.042 112.704C539.743 111.765 539.444 110.752 539.146 109.664C538.868 110.752 538.58 111.776 538.282 112.736C537.983 113.675 537.695 114.496 537.418 115.2L531.818 130.528H546.538ZM561.738 148H555.082C554.335 148 553.727 147.819 553.258 147.456C552.788 147.072 552.436 146.603 552.201 146.048L548.746 136.608H529.578L526.122 146.048C525.951 146.539 525.62 146.987 525.13 147.392C524.639 147.797 524.031 148 523.306 148H516.585L534.794 101.728H543.562L561.738 148ZM594.347 108.8H580.395V148H571.787V108.8H557.835V101.728H594.347V108.8ZM642.968 124.864C642.968 128.256 642.402 131.403 641.272 134.304C640.162 137.184 638.584 139.68 636.536 141.792C634.488 143.904 632.024 145.557 629.144 146.752C626.264 147.925 623.064 148.512 619.544 148.512C616.045 148.512 612.856 147.925 609.976 146.752C607.096 145.557 604.621 143.904 602.552 141.792C600.504 139.68 598.914 137.184 597.784 134.304C596.653 131.403 596.088 128.256 596.088 124.864C596.088 121.472 596.653 118.336 597.784 115.456C598.914 112.555 600.504 110.048 602.552 107.936C604.621 105.824 607.096 104.181 609.976 103.008C612.856 101.813 616.045 101.216 619.544 101.216C621.89 101.216 624.098 101.493 626.168 102.048C628.237 102.581 630.136 103.349 631.864 104.352C633.592 105.333 635.138 106.539 636.504 107.968C637.89 109.376 639.064 110.955 640.024 112.704C640.984 114.453 641.709 116.352 642.2 118.4C642.712 120.448 642.968 122.603 642.968 124.864ZM634.168 124.864C634.168 122.325 633.826 120.053 633.144 118.048C632.461 116.021 631.49 114.304 630.232 112.896C628.973 111.488 627.437 110.411 625.624 109.664C623.832 108.917 621.805 108.544 619.544 108.544C617.282 108.544 615.245 108.917 613.432 109.664C611.64 110.411 610.104 111.488 608.824 112.896C607.565 114.304 606.594 116.021 605.912 118.048C605.229 120.053 604.888 122.325 604.888 124.864C604.888 127.403 605.229 129.685 605.912 131.712C606.594 133.717 607.565 135.424 608.824 136.832C610.104 138.219 611.64 139.285 613.432 140.032C615.245 140.779 617.282 141.152 619.544 141.152C621.805 141.152 623.832 140.779 625.624 140.032C627.437 139.285 628.973 138.219 630.232 136.832C631.49 135.424 632.461 133.717 633.144 131.712C633.826 129.685 634.168 127.403 634.168 124.864ZM683.402 141.28C685.002 141.28 686.346 141.088 687.434 140.704C688.522 140.32 689.386 139.808 690.026 139.168C690.687 138.528 691.156 137.781 691.434 136.928C691.732 136.075 691.882 135.168 691.882 134.208C691.882 133.205 691.722 132.309 691.402 131.52C691.082 130.709 690.58 130.027 689.898 129.472C689.215 128.896 688.33 128.459 687.242 128.16C686.175 127.861 684.884 127.712 683.37 127.712H674.698V141.28H683.402ZM674.698 108.384V121.76H681.546C684.49 121.76 686.708 121.227 688.202 120.16C689.716 119.093 690.474 117.397 690.474 115.072C690.474 112.661 689.791 110.944 688.426 109.92C687.06 108.896 684.927 108.384 682.026 108.384H674.698ZM682.026 101.728C685.055 101.728 687.647 102.016 689.802 102.592C691.956 103.168 693.716 103.989 695.082 105.056C696.468 106.123 697.482 107.413 698.122 108.928C698.762 110.443 699.082 112.149 699.082 114.048C699.082 115.136 698.922 116.181 698.602 117.184C698.282 118.165 697.78 119.093 697.097 119.968C696.436 120.821 695.583 121.6 694.538 122.304C693.514 123.008 692.287 123.605 690.858 124.096C697.215 125.525 700.394 128.96 700.394 134.4C700.394 136.363 700.02 138.176 699.274 139.84C698.527 141.504 697.439 142.944 696.01 144.16C694.58 145.355 692.82 146.293 690.73 146.976C688.639 147.659 686.25 148 683.562 148H666.09V101.728H682.026ZM731.913 130.528L726.281 115.136C726.003 114.453 725.715 113.643 725.417 112.704C725.118 111.765 724.819 110.752 724.521 109.664C724.243 110.752 723.955 111.776 723.657 112.736C723.358 113.675 723.07 114.496 722.793 115.2L717.193 130.528H731.913ZM747.113 148H740.457C739.71 148 739.102 147.819 738.633 147.456C738.163 147.072 737.811 146.603 737.576 146.048L734.121 136.608H714.953L711.497 146.048C711.326 146.539 710.995 146.987 710.505 147.392C710.014 147.797 709.406 148 708.681 148H701.96L720.169 101.728H728.937L747.113 148ZM776.542 110.144C776.286 110.592 776.009 110.923 775.71 111.136C775.433 111.328 775.081 111.424 774.654 111.424C774.206 111.424 773.715 111.264 773.182 110.944C772.67 110.603 772.051 110.229 771.326 109.824C770.601 109.419 769.747 109.056 768.766 108.736C767.806 108.395 766.665 108.224 765.342 108.224C764.147 108.224 763.102 108.373 762.206 108.672C761.31 108.949 760.553 109.344 759.934 109.856C759.337 110.368 758.889 110.987 758.59 111.712C758.291 112.416 758.142 113.195 758.142 114.048C758.142 115.136 758.441 116.043 759.038 116.768C759.657 117.493 760.467 118.112 761.47 118.624C762.473 119.136 763.614 119.595 764.894 120C766.174 120.405 767.486 120.843 768.83 121.312C770.174 121.76 771.486 122.293 772.766 122.912C774.046 123.509 775.187 124.277 776.19 125.216C777.193 126.133 777.993 127.264 778.59 128.608C779.209 129.952 779.518 131.584 779.518 133.504C779.518 135.595 779.155 137.557 778.43 139.392C777.726 141.205 776.681 142.795 775.294 144.16C773.929 145.504 772.254 146.571 770.27 147.36C768.286 148.128 766.014 148.512 763.454 148.512C761.982 148.512 760.531 148.363 759.102 148.064C757.673 147.787 756.297 147.381 754.974 146.848C753.673 146.315 752.446 145.675 751.294 144.928C750.142 144.181 749.118 143.349 748.222 142.432L750.75 138.304C750.963 138.005 751.241 137.76 751.582 137.568C751.923 137.355 752.286 137.248 752.67 137.248C753.203 137.248 753.779 137.472 754.398 137.92C755.017 138.347 755.753 138.827 756.606 139.36C757.459 139.893 758.451 140.384 759.582 140.832C760.734 141.259 762.11 141.472 763.71 141.472C766.163 141.472 768.062 140.896 769.406 139.744C770.75 138.571 771.422 136.896 771.422 134.72C771.422 133.504 771.113 132.512 770.494 131.744C769.897 130.976 769.097 130.336 768.094 129.824C767.091 129.291 765.95 128.843 764.67 128.48C763.39 128.117 762.089 127.723 760.766 127.296C759.443 126.869 758.142 126.357 756.862 125.76C755.582 125.163 754.441 124.384 753.438 123.424C752.435 122.464 751.625 121.269 751.006 119.84C750.409 118.389 750.11 116.608 750.11 114.496C750.11 112.811 750.441 111.168 751.102 109.568C751.785 107.968 752.766 106.549 754.046 105.312C755.326 104.075 756.905 103.083 758.782 102.336C760.659 101.589 762.814 101.216 765.246 101.216C767.977 101.216 770.494 101.643 772.798 102.496C775.102 103.349 777.065 104.544 778.686 106.08L776.542 110.144ZM805.651 141.056C807.315 141.056 808.798 140.779 810.099 140.224C811.422 139.669 812.531 138.891 813.427 137.888C814.323 136.885 815.006 135.669 815.475 134.24C815.966 132.811 816.211 131.211 816.211 129.44V101.728H824.819V129.44C824.819 132.192 824.371 134.741 823.475 137.088C822.6 139.413 821.331 141.429 819.667 143.136C818.024 144.821 816.019 146.144 813.651 147.104C811.283 148.043 808.616 148.512 805.651 148.512C802.664 148.512 799.987 148.043 797.619 147.104C795.251 146.144 793.235 144.821 791.571 143.136C789.928 141.429 788.659 139.413 787.763 137.088C786.888 134.741 786.451 132.192 786.451 129.44V101.728H795.059V129.408C795.059 131.179 795.294 132.779 795.763 134.208C796.254 135.637 796.947 136.864 797.843 137.888C798.76 138.891 799.87 139.669 801.171 140.224C802.494 140.779 803.987 141.056 805.651 141.056Z" fill="#5221E6"/>
<defs>
<clipPath id="clip0_42_43986">
<rect width="90" height="161" fill="white" transform="translate(305 79) rotate(90)"/>
</clipPath>
</defs>
</svg>
