<svg width="298" height="248" viewBox="0 0 298 248" fill="none" xmlns="http://www.w3.org/2000/svg">
<rect width="298" height="248" fill="white"/>
<g clip-path="url(#clip0_38_43965)">
<path d="M105.568 70.0582L105.568 84.6686C105.568 84.6686 95.3502 84.1986 85.3622 89.6133C75.7051 94.8483 65.6772 105.719 65.7842 123.099C65.8157 128.208 66.999 136.299 70.8654 143.484C74.2086 149.697 77.3535 153.128 82.4305 156.973C87.5074 160.819 91.7556 163.425 99.8443 164.552C111.115 164.999 117.995 162.957 127.806 155.726C135.027 150.405 142.147 139.786 148.34 131.42C156.516 120.379 162.812 111.703 162.812 111.703C162.812 111.703 166.384 117.137 171.666 124.04C174.824 128.168 178.093 133.353 182.261 136.544C184.274 138.085 187.19 140.01 190.484 140.107C193.778 140.205 196.402 141.129 201.936 137.516C206.577 134.422 209.939 126.61 208.318 119.492C206.698 112.374 200.982 110.126 194.664 108.647C180.61 105.357 157.476 109.158 136.431 108C119.638 107.075 102.429 108 102.429 108C102.429 108 99.6663 108.565 97.335 109.618C91.5108 112.248 84.9505 120.811 91.5354 132.642C92.469 134.144 93.6611 135.465 95.0555 136.544C110.076 146.295 119.991 131.42 119.991 131.42L136.431 108L166.445 93.3187L153.834 108.647L129.888 142.267C129.888 142.267 122.217 152.551 111.526 154.632C100.835 156.712 91.5356 151.137 91.5356 151.137C91.5356 151.137 71.3082 143.086 75.275 118.063C79.2418 93.0396 101.107 93.3187 101.107 93.3187L144.909 93.3187C144.909 93.3187 154.465 80.411 168.844 73.7155C172.638 71.9484 178.164 70.6162 182.261 70.0582C187.249 69.3791 201.325 68.3205 214.201 73.8215C229.222 80.2396 243.474 95.0426 245.459 121.785C245.869 134.447 243.189 143.481 238.77 151.137C232.652 161.736 223.289 169.157 214.595 173.165C202.952 178.532 192.494 178.5 192.494 178.5L192.494 163.829C192.494 163.829 205.41 162.297 213.92 156.86C219.994 152.1 225.28 146.178 228.116 138.934C230.41 133.075 231.133 126.544 231.133 121.785C231.133 108.808 222.084 95.4185 212.101 89.7089C199.027 81.7159 184.896 84.0857 184.896 84.0857C184.896 84.0857 179.443 85.2911 174.83 87.4536C170.217 89.616 166.445 93.3186 166.445 93.3186L192.493 93.3186C192.493 93.3186 197.307 93.6425 199.476 94.2611C229.812 102.911 222.969 129.846 221.755 133.4C220.542 136.954 214.192 153.449 194.655 154.982C175.119 156.515 162.812 136.544 162.812 136.544C162.812 136.544 150.846 151.626 143.031 160.166C138.897 164.684 134.069 168.439 128.888 171.111C124.27 173.492 119.563 176.215 109.901 177.169C89.3879 179.195 76.935 171.9 68.3288 163.829C59.7226 155.757 51.4999 139.194 51.4999 123.099C51.4999 107.005 59.8613 93.2679 64.694 87.7835C69.5267 82.299 77.2004 77.2423 84.392 74.738C94.0448 71.3761 105.568 70.0582 105.568 70.0582Z" fill="black"/>
</g>
<defs>
<clipPath id="clip0_38_43965">
<rect width="109" height="194" fill="white" transform="translate(245.5 69.5) rotate(90)"/>
</clipPath>
</defs>
</svg>
