<svg width="298" height="248" viewBox="0 0 298 248" fill="none" xmlns="http://www.w3.org/2000/svg">
<rect width="298" height="248" fill="white"/>
<g clip-path="url(#clip0_39_43982)">
<path d="M113.371 53.4609L113.371 65.5245C113.371 65.5245 104.891 65.1365 96.6021 69.6073C88.5878 73.9298 80.2657 82.9052 80.3544 97.2561C80.3805 101.475 81.3626 108.155 84.5713 114.087C87.3458 119.217 89.9558 122.051 94.1691 125.226C98.3824 128.401 101.908 130.553 108.621 131.483C117.974 131.852 123.684 130.166 131.826 124.196C137.819 119.803 143.727 111.034 148.867 104.127C155.652 95.01 160.877 87.8462 160.877 87.8462C160.877 87.8462 163.842 92.3333 168.225 98.0332C170.846 101.441 173.559 105.722 177.018 108.358C178.689 109.63 181.109 111.219 183.843 111.3C186.576 111.38 188.753 112.143 193.347 109.16C197.198 106.606 199.988 100.155 198.643 94.2778C197.298 88.4004 192.555 86.5443 187.311 85.3231C175.648 82.6063 156.449 85.7452 138.984 84.7887C125.047 84.0254 110.766 84.7887 110.766 84.7887C110.766 84.7887 108.473 85.2557 106.538 86.1249C101.705 88.2962 96.2605 95.3665 101.725 105.136C102.5 106.376 103.489 107.467 104.647 108.357C117.112 116.408 125.341 104.127 125.341 104.127L138.984 84.7888L163.892 72.6668L153.427 85.3231L133.554 113.083C133.554 113.083 127.188 121.575 118.315 123.292C109.443 125.01 101.725 120.407 101.725 120.407C101.725 120.407 84.9388 113.759 88.2308 93.0978C91.5229 72.4364 109.668 72.6668 109.668 72.6668L146.02 72.6668C146.02 72.6668 153.95 62.0091 165.883 56.4807C169.032 55.0216 173.618 53.9216 177.018 53.4609C181.157 52.9002 192.84 52.0261 203.525 56.5682C215.991 61.8675 227.818 74.0902 229.466 96.1715C229.806 106.626 227.582 114.085 223.915 120.407C218.838 129.158 211.067 135.286 203.852 138.595C194.19 143.026 185.51 143 185.51 143L185.51 130.886C185.51 130.886 196.23 129.622 203.292 125.132C208.333 121.202 212.72 116.312 215.073 110.331C216.977 105.493 217.576 100.1 217.576 96.1715C217.576 85.4561 210.067 74.4006 201.782 69.6862C190.932 63.0865 179.205 65.0432 179.205 65.0432C179.205 65.0432 174.679 66.0385 170.851 67.824C167.023 69.6096 163.892 72.6668 163.892 72.6668L185.51 72.6668C185.51 72.6668 189.505 72.9342 191.305 73.4449C216.48 80.5867 210.802 102.827 209.794 105.761C208.787 108.696 203.517 122.316 187.304 123.581C171.091 124.847 160.877 108.357 160.877 108.357C160.877 108.357 150.947 120.81 144.461 127.862C141.031 131.592 137.024 134.693 132.724 136.899C128.891 138.865 124.985 141.114 116.967 141.901C99.9431 143.574 89.6084 137.55 82.4662 130.886C75.3239 124.222 68.4999 110.545 68.4999 97.2563C68.4999 83.9671 75.439 72.6249 79.4496 68.0964C83.4603 63.568 89.8287 59.3927 95.797 57.3249C103.808 54.5491 113.371 53.4609 113.371 53.4609Z" fill="#5221E6"/>
</g>
<path d="M65.352 176.068C65.232 176.26 65.104 176.404 64.968 176.5C64.84 176.596 64.672 176.644 64.464 176.644C64.28 176.644 64.08 176.588 63.864 176.476C63.656 176.356 63.416 176.224 63.144 176.08C62.88 175.936 62.576 175.808 62.232 175.696C61.888 175.576 61.496 175.516 61.056 175.516C60.296 175.516 59.728 175.68 59.352 176.008C58.984 176.328 58.8 176.764 58.8 177.316C58.8 177.668 58.912 177.96 59.136 178.192C59.36 178.424 59.652 178.624 60.012 178.792C60.38 178.96 60.796 179.116 61.26 179.26C61.732 179.396 62.212 179.552 62.7 179.728C63.188 179.896 63.664 180.096 64.128 180.328C64.6 180.56 65.016 180.856 65.376 181.216C65.744 181.576 66.04 182.016 66.264 182.536C66.488 183.048 66.6 183.668 66.6 184.396C66.6 185.204 66.46 185.96 66.18 186.664C65.9 187.368 65.492 187.984 64.956 188.512C64.428 189.032 63.772 189.444 62.988 189.748C62.212 190.044 61.328 190.192 60.336 190.192C59.792 190.192 59.236 190.136 58.668 190.024C58.108 189.912 57.564 189.756 57.036 189.556C56.508 189.348 56.012 189.104 55.548 188.824C55.084 188.544 54.68 188.232 54.336 187.888L55.536 185.992C55.632 185.856 55.756 185.744 55.908 185.656C56.068 185.56 56.24 185.512 56.424 185.512C56.664 185.512 56.904 185.588 57.144 185.74C57.392 185.892 57.668 186.06 57.972 186.244C58.284 186.428 58.64 186.596 59.04 186.748C59.44 186.9 59.912 186.976 60.456 186.976C61.192 186.976 61.764 186.816 62.172 186.496C62.58 186.168 62.784 185.652 62.784 184.948C62.784 184.54 62.672 184.208 62.448 183.952C62.224 183.696 61.928 183.484 61.56 183.316C61.2 183.148 60.788 183 60.324 182.872C59.86 182.744 59.384 182.604 58.896 182.452C58.408 182.292 57.932 182.1 57.468 181.876C57.004 181.644 56.588 181.344 56.22 180.976C55.86 180.6 55.568 180.136 55.344 179.584C55.12 179.024 55.008 178.336 55.008 177.52C55.008 176.864 55.14 176.224 55.404 175.6C55.668 174.976 56.056 174.42 56.568 173.932C57.08 173.444 57.708 173.056 58.452 172.768C59.196 172.472 60.048 172.324 61.008 172.324C61.544 172.324 62.064 172.368 62.568 172.456C63.08 172.536 63.564 172.66 64.02 172.828C64.476 172.988 64.9 173.184 65.292 173.416C65.692 173.64 66.048 173.896 66.36 174.184L65.352 176.068ZM92.6604 172.516L87.2604 190H83.5884L80.3004 179.164C80.2364 178.996 80.1764 178.812 80.1204 178.612C80.0644 178.404 80.0084 178.188 79.9524 177.964C79.8964 178.188 79.8404 178.404 79.7844 178.612C79.7284 178.812 79.6684 178.996 79.6044 179.164L76.2684 190H72.5964L67.1964 172.516H70.6044C70.9564 172.516 71.2484 172.596 71.4804 172.756C71.7204 172.916 71.8764 173.128 71.9484 173.392L74.3484 182.512C74.4204 182.8 74.4924 183.116 74.5644 183.46C74.6364 183.796 74.7084 184.148 74.7804 184.516C74.9244 183.764 75.1004 183.096 75.3084 182.512L78.1404 173.392C78.2124 173.168 78.3644 172.968 78.5964 172.792C78.8364 172.608 79.1244 172.516 79.4604 172.516H80.6604C81.0124 172.516 81.2964 172.6 81.5124 172.768C81.7284 172.928 81.8924 173.136 82.0044 173.392L84.8124 182.512C85.0204 183.072 85.1964 183.708 85.3404 184.42C85.4044 184.06 85.4684 183.724 85.5324 183.412C85.6044 183.092 85.6764 182.792 85.7484 182.512L88.1484 173.392C88.2124 173.16 88.3644 172.956 88.6044 172.78C88.8444 172.604 89.1324 172.516 89.4684 172.516H92.6604ZM102.409 183.316L100.789 178.528C100.669 178.224 100.541 177.868 100.405 177.46C100.269 177.044 100.133 176.596 99.9966 176.116C99.8766 176.604 99.7486 177.056 99.6126 177.472C99.4766 177.888 99.3486 178.248 99.2286 178.552L97.6206 183.316H102.409ZM108.853 190H105.709C105.357 190 105.073 189.92 104.857 189.76C104.641 189.592 104.477 189.38 104.365 189.124L103.333 186.076H96.6846L95.6526 189.124C95.5646 189.348 95.4046 189.552 95.1726 189.736C94.9486 189.912 94.6686 190 94.3326 190H91.1646L97.9326 172.516H102.085L108.853 190ZM118.045 180.94H124.261V188.32C123.365 188.976 122.409 189.452 121.393 189.748C120.385 190.044 119.329 190.192 118.225 190.192C116.785 190.192 115.473 189.968 114.289 189.52C113.113 189.064 112.105 188.44 111.265 187.648C110.425 186.848 109.777 185.904 109.321 184.816C108.865 183.72 108.637 182.532 108.637 181.252C108.637 179.948 108.853 178.752 109.285 177.664C109.717 176.568 110.333 175.624 111.133 174.832C111.941 174.04 112.913 173.424 114.049 172.984C115.193 172.544 116.469 172.324 117.877 172.324C118.605 172.324 119.289 172.384 119.929 172.504C120.569 172.624 121.157 172.788 121.693 172.996C122.237 173.204 122.733 173.452 123.181 173.74C123.629 174.028 124.029 174.34 124.381 174.676L123.205 176.464C123.021 176.744 122.781 176.916 122.485 176.98C122.197 177.044 121.885 176.972 121.549 176.764C121.229 176.572 120.925 176.408 120.637 176.272C120.357 176.128 120.069 176.012 119.773 175.924C119.477 175.836 119.165 175.772 118.837 175.732C118.509 175.692 118.141 175.672 117.733 175.672C116.973 175.672 116.289 175.808 115.681 176.08C115.073 176.344 114.553 176.72 114.121 177.208C113.697 177.696 113.369 178.284 113.137 178.972C112.905 179.652 112.789 180.412 112.789 181.252C112.789 182.18 112.917 183.004 113.173 183.724C113.429 184.444 113.789 185.052 114.253 185.548C114.725 186.044 115.285 186.424 115.933 186.688C116.589 186.944 117.313 187.072 118.105 187.072C118.593 187.072 119.033 187.024 119.425 186.928C119.825 186.832 120.213 186.704 120.589 186.544V183.892H118.861C118.605 183.892 118.405 183.824 118.261 183.688C118.117 183.552 118.045 183.38 118.045 183.172V180.94ZM135.971 183.316L134.351 178.528C134.231 178.224 134.103 177.868 133.967 177.46C133.831 177.044 133.695 176.596 133.559 176.116C133.439 176.604 133.311 177.056 133.175 177.472C133.039 177.888 132.911 178.248 132.791 178.552L131.183 183.316H135.971ZM142.415 190H139.271C138.919 190 138.635 189.92 138.419 189.76C138.203 189.592 138.039 189.38 137.927 189.124L136.895 186.076H130.247L129.215 189.124C129.127 189.348 128.967 189.552 128.735 189.736C128.511 189.912 128.231 190 127.895 190H124.727L131.495 172.516H135.647L142.415 190ZM154.647 175.732H149.727V190H145.671V175.732H140.751V172.516H154.647V175.732ZM173.469 181.252C173.469 182.516 173.249 183.692 172.809 184.78C172.377 185.868 171.765 186.816 170.973 187.624C170.181 188.424 169.225 189.052 168.105 189.508C166.993 189.964 165.757 190.192 164.397 190.192C163.037 190.192 161.797 189.964 160.677 189.508C159.557 189.052 158.597 188.424 157.797 187.624C157.005 186.816 156.389 185.868 155.949 184.78C155.517 183.692 155.301 182.516 155.301 181.252C155.301 179.988 155.517 178.812 155.949 177.724C156.389 176.636 157.005 175.692 157.797 174.892C158.597 174.092 159.557 173.464 160.677 173.008C161.797 172.552 163.037 172.324 164.397 172.324C165.757 172.324 166.993 172.556 168.105 173.02C169.225 173.476 170.181 174.104 170.973 174.904C171.765 175.704 172.377 176.648 172.809 177.736C173.249 178.824 173.469 179.996 173.469 181.252ZM169.317 181.252C169.317 180.388 169.205 179.612 168.981 178.924C168.757 178.228 168.433 177.64 168.009 177.16C167.593 176.68 167.081 176.312 166.473 176.056C165.865 175.8 165.173 175.672 164.397 175.672C163.613 175.672 162.913 175.8 162.297 176.056C161.689 176.312 161.173 176.68 160.749 177.16C160.333 177.64 160.013 178.228 159.789 178.924C159.565 179.612 159.453 180.388 159.453 181.252C159.453 182.124 159.565 182.908 159.789 183.604C160.013 184.292 160.333 184.876 160.749 185.356C161.173 185.836 161.689 186.204 162.297 186.46C162.913 186.708 163.613 186.832 164.397 186.832C165.173 186.832 165.865 186.708 166.473 186.46C167.081 186.204 167.593 185.836 168.009 185.356C168.433 184.876 168.757 184.292 168.981 183.604C169.205 182.908 169.317 182.124 169.317 181.252ZM188.323 186.94C188.859 186.94 189.295 186.872 189.631 186.736C189.975 186.6 190.243 186.424 190.435 186.208C190.627 185.992 190.759 185.748 190.831 185.476C190.903 185.204 190.939 184.928 190.939 184.648C190.939 184.328 190.895 184.04 190.807 183.784C190.727 183.528 190.583 183.312 190.375 183.136C190.175 182.96 189.907 182.824 189.571 182.728C189.235 182.632 188.811 182.584 188.299 182.584H185.467V186.94H188.323ZM185.467 175.552V179.872H187.579C188.027 179.872 188.431 179.84 188.791 179.776C189.151 179.712 189.455 179.6 189.703 179.44C189.959 179.28 190.151 179.06 190.279 178.78C190.415 178.5 190.483 178.148 190.483 177.724C190.483 177.308 190.431 176.964 190.327 176.692C190.223 176.412 190.063 176.188 189.847 176.02C189.631 175.852 189.355 175.732 189.019 175.66C188.691 175.588 188.299 175.552 187.843 175.552H185.467ZM187.843 172.516C189.051 172.516 190.079 172.628 190.927 172.852C191.775 173.076 192.467 173.392 193.003 173.8C193.539 174.208 193.927 174.704 194.167 175.288C194.415 175.872 194.539 176.524 194.539 177.244C194.539 177.636 194.483 178.016 194.371 178.384C194.259 178.744 194.083 179.084 193.843 179.404C193.603 179.716 193.295 180.004 192.919 180.268C192.543 180.532 192.091 180.76 191.563 180.952C192.715 181.232 193.567 181.684 194.119 182.308C194.671 182.932 194.947 183.74 194.947 184.732C194.947 185.476 194.803 186.168 194.515 186.808C194.227 187.448 193.803 188.008 193.243 188.488C192.691 188.96 192.007 189.332 191.191 189.604C190.375 189.868 189.443 190 188.395 190H181.411V172.516H187.843ZM206.424 183.316L204.804 178.528C204.684 178.224 204.556 177.868 204.42 177.46C204.284 177.044 204.148 176.596 204.012 176.116C203.892 176.604 203.764 177.056 203.628 177.472C203.492 177.888 203.364 178.248 203.244 178.552L201.636 183.316H206.424ZM212.868 190H209.724C209.372 190 209.088 189.92 208.872 189.76C208.656 189.592 208.492 189.38 208.38 189.124L207.348 186.076H200.7L199.668 189.124C199.58 189.348 199.42 189.552 199.188 189.736C198.964 189.912 198.684 190 198.348 190H195.18L201.948 172.516H206.1L212.868 190ZM223.907 176.068C223.787 176.26 223.659 176.404 223.523 176.5C223.395 176.596 223.227 176.644 223.019 176.644C222.835 176.644 222.635 176.588 222.419 176.476C222.211 176.356 221.971 176.224 221.699 176.08C221.435 175.936 221.131 175.808 220.787 175.696C220.443 175.576 220.051 175.516 219.611 175.516C218.851 175.516 218.283 175.68 217.907 176.008C217.539 176.328 217.355 176.764 217.355 177.316C217.355 177.668 217.467 177.96 217.691 178.192C217.915 178.424 218.207 178.624 218.567 178.792C218.935 178.96 219.351 179.116 219.815 179.26C220.287 179.396 220.767 179.552 221.255 179.728C221.743 179.896 222.219 180.096 222.683 180.328C223.155 180.56 223.571 180.856 223.931 181.216C224.299 181.576 224.595 182.016 224.819 182.536C225.043 183.048 225.155 183.668 225.155 184.396C225.155 185.204 225.015 185.96 224.735 186.664C224.455 187.368 224.047 187.984 223.511 188.512C222.983 189.032 222.327 189.444 221.543 189.748C220.767 190.044 219.883 190.192 218.891 190.192C218.347 190.192 217.791 190.136 217.223 190.024C216.663 189.912 216.119 189.756 215.591 189.556C215.063 189.348 214.567 189.104 214.103 188.824C213.639 188.544 213.235 188.232 212.891 187.888L214.091 185.992C214.187 185.856 214.311 185.744 214.463 185.656C214.623 185.56 214.795 185.512 214.979 185.512C215.219 185.512 215.459 185.588 215.699 185.74C215.947 185.892 216.223 186.06 216.527 186.244C216.839 186.428 217.195 186.596 217.595 186.748C217.995 186.9 218.467 186.976 219.011 186.976C219.747 186.976 220.319 186.816 220.727 186.496C221.135 186.168 221.339 185.652 221.339 184.948C221.339 184.54 221.227 184.208 221.003 183.952C220.779 183.696 220.483 183.484 220.115 183.316C219.755 183.148 219.343 183 218.879 182.872C218.415 182.744 217.939 182.604 217.451 182.452C216.963 182.292 216.487 182.1 216.023 181.876C215.559 181.644 215.143 181.344 214.775 180.976C214.415 180.6 214.123 180.136 213.899 179.584C213.675 179.024 213.563 178.336 213.563 177.52C213.563 176.864 213.695 176.224 213.959 175.6C214.223 174.976 214.611 174.42 215.123 173.932C215.635 173.444 216.263 173.056 217.007 172.768C217.751 172.472 218.603 172.324 219.563 172.324C220.099 172.324 220.619 172.368 221.123 172.456C221.635 172.536 222.119 172.66 222.575 172.828C223.031 172.988 223.455 173.184 223.847 173.416C224.247 173.64 224.603 173.896 224.915 174.184L223.907 176.068ZM234.832 186.796C235.376 186.796 235.86 186.708 236.284 186.532C236.716 186.348 237.08 186.088 237.376 185.752C237.672 185.416 237.896 185.008 238.048 184.528C238.208 184.04 238.288 183.488 238.288 182.872V172.516H242.344V182.872C242.344 183.944 242.168 184.928 241.816 185.824C241.472 186.72 240.976 187.492 240.328 188.14C239.68 188.788 238.892 189.292 237.964 189.652C237.036 190.012 235.992 190.192 234.832 190.192C233.664 190.192 232.616 190.012 231.688 189.652C230.76 189.292 229.972 188.788 229.324 188.14C228.676 187.492 228.18 186.72 227.836 185.824C227.492 184.928 227.32 183.944 227.32 182.872V172.516H231.376V182.86C231.376 183.476 231.452 184.028 231.604 184.516C231.764 184.996 231.992 185.408 232.288 185.752C232.584 186.088 232.944 186.348 233.368 186.532C233.8 186.708 234.288 186.796 234.832 186.796Z" fill="#5221E6"/>
<defs>
<clipPath id="clip0_39_43982">
<rect width="90" height="161" fill="white" transform="translate(229.5 53) rotate(90)"/>
</clipPath>
</defs>
</svg>
