<svg width="64" height="64" viewBox="0 0 64 64" fill="none" xmlns="http://www.w3.org/2000/svg">
<rect x="1.5" y="1.5" width="61" height="61" fill="white"/>
<g clip-path="url(#clip0_42_43992)">
<path d="M21.7628 19.628L21.7628 22.979C21.7628 22.979 19.4454 22.8712 17.1801 24.1131C14.9898 25.3138 12.7155 27.807 12.7397 31.7934C12.7468 32.9651 13.0152 34.8208 13.8922 36.4687C14.6504 37.8937 15.3637 38.6807 16.5152 39.5627C17.6666 40.4447 18.6301 41.0425 20.4647 41.3009C23.0209 41.4035 24.5813 40.935 26.8066 39.2767C28.4442 38.0563 30.059 35.6206 31.4638 33.7019C33.3179 31.1694 34.746 29.1795 34.746 29.1795C34.746 29.1795 35.5562 30.4259 36.7542 32.0092C37.4704 32.9559 38.2118 34.1451 39.1572 34.8771C39.6138 35.2306 40.2751 35.672 41.0222 35.6943C41.7693 35.7167 42.3643 35.9286 43.6196 35.0999C44.6721 34.3905 45.4345 32.5987 45.0671 30.9661C44.6996 29.3335 43.4032 28.8179 41.9702 28.4787C38.7826 27.724 33.5358 28.5959 28.7627 28.3302C24.9539 28.1182 21.051 28.3302 21.051 28.3302C21.051 28.3302 20.4243 28.4599 19.8956 28.7014C18.5746 29.3045 17.0867 31.2685 18.5802 33.9822C18.7919 34.3266 19.0623 34.6297 19.3786 34.877C22.7854 37.1134 25.0341 33.7019 25.0341 33.7019L28.7628 28.3302L35.57 24.963L32.7098 28.4787L27.2786 36.1897C27.2786 36.1897 25.5388 38.5485 23.1141 39.0256C20.6894 39.5027 18.5802 38.2241 18.5802 38.2241C18.5802 38.2241 13.9926 36.3776 14.8923 30.6383C15.792 24.899 20.751 24.963 20.751 24.963L30.6855 24.963C30.6855 24.963 32.8529 22.0025 36.114 20.4669C36.9745 20.0616 38.2279 19.756 39.1572 19.628C40.2884 19.4723 43.481 19.2295 46.4012 20.4912C49.8082 21.9632 53.0404 25.3584 53.4907 31.4921C53.5836 34.396 52.9758 36.4682 51.9736 38.2241C50.5861 40.6551 48.4624 42.3571 46.4906 43.2763C43.8499 44.5073 41.4779 44.5 41.4779 44.5L41.4779 41.135C41.4779 41.135 44.4075 40.7838 46.3376 39.5368C47.7152 38.4449 48.9141 37.0867 49.5573 35.4252C50.0776 34.0813 50.2414 32.5835 50.2414 31.4921C50.2414 28.5156 48.1892 25.4446 45.925 24.1351C42.9598 22.3018 39.7549 22.8453 39.7549 22.8453C39.7549 22.8453 38.518 23.1218 37.4718 23.6178C36.4256 24.1138 35.57 24.963 35.57 24.963L41.4779 24.963C41.4779 24.963 42.5696 25.0373 43.0616 25.1791C49.9419 27.163 48.3899 33.3407 48.1146 34.1559C47.8393 34.971 46.3991 38.7544 41.9682 39.1059C37.5372 39.4575 34.746 34.877 34.746 34.877C34.746 34.877 32.032 38.3362 30.2596 40.2949C29.3221 41.3311 28.2271 42.1924 27.0519 42.8052C26.0045 43.3514 24.937 43.976 22.7456 44.1948C18.0931 44.6594 15.2688 42.9862 13.3168 41.135C11.3649 39.2838 9.49998 35.4849 9.49998 31.7934C9.49998 28.102 11.3964 24.9514 12.4924 23.6935C13.5885 22.4356 15.329 21.2758 16.96 20.7014C19.1493 19.9303 21.7628 19.628 21.7628 19.628Z" fill="#5221E6"/>
</g>
<rect x="1.5" y="1.5" width="61" height="61" stroke="#5221E6" stroke-width="3"/>
<defs>
<clipPath id="clip0_42_43992">
<rect width="25" height="44" fill="white" transform="translate(53.5 19.5) rotate(90)"/>
</clipPath>
</defs>
</svg>
