<svg width="373" height="313" viewBox="0 0 373 313" fill="none" xmlns="http://www.w3.org/2000/svg">
<path d="M0 3.99999C0 1.79086 1.79086 0 4 0H368.5C370.709 0 372.5 1.79086 372.5 4V313H0V3.99999Z" fill="white"/>
<path d="M226 185.667V127.333C226 122.75 222.05 119 217.222 119H155.778C150.95 119 147 122.75 147 127.333V185.667C147 190.25 150.95 194 155.778 194H217.222C222.05 194 226 190.25 226 185.667ZM171.139 162.75L182.111 175.292L197.472 156.5L217.222 181.5H155.778L171.139 162.75Z" fill="#A3A3A3"/>
</svg>
