<svg width="487" height="227" viewBox="0 0 487 227" fill="none" xmlns="http://www.w3.org/2000/svg">
<path d="M0 4C0 1.79086 1.79086 0 4 0H483C485.209 0 487 1.79086 487 4V227H0V4Z" fill="white"/>
<path d="M291.071 136.437V84.6717C291.071 80.6044 285.955 77.2767 279.703 77.2767H200.128C193.875 77.2767 188.76 80.6044 188.76 84.6717V136.437C188.76 140.504 193.875 143.832 200.128 143.832H279.703C285.955 143.832 291.071 140.504 291.071 136.437ZM220.021 116.1L234.231 127.23L254.125 110.554L279.703 132.739H200.128L220.021 116.1Z" fill="#A3A3A3"/>
</svg>
