<svg width="55" height="31" viewBox="0 0 55 31" fill="none" xmlns="http://www.w3.org/2000/svg">
<g clip-path="url(#clip0_27_602)">
<path d="M15.3288 0.158756L15.3288 4.314C15.3288 4.314 12.432 4.18034 9.60036 5.72029C6.86252 7.20916 4.01957 10.3007 4.0499 15.2438C4.05881 16.6968 4.3943 18.9978 5.49044 21.0412C6.43824 22.8082 7.32985 23.7841 8.76919 24.8778C10.2085 25.9714 11.4129 26.7127 13.7061 27.0331C16.9014 27.1603 18.8519 26.5794 21.6335 24.5231C23.6805 23.0098 25.699 19.9895 27.455 17.6104C29.7727 14.4701 31.5577 12.0026 31.5577 12.0026C31.5577 12.0026 32.5705 13.5481 34.0679 15.5114C34.9633 16.6853 35.89 18.16 37.0718 19.0676C37.6424 19.5059 38.4692 20.0533 39.403 20.081C40.3369 20.1087 41.0806 20.3714 42.6498 19.3439C43.9654 18.4642 44.9184 16.2423 44.4591 14.2179C43.9997 12.1935 42.3793 11.5541 40.588 11.1335C36.6035 10.1977 30.045 11.2789 24.0787 10.9494C19.3176 10.6865 14.439 10.9494 14.439 10.9494C14.439 10.9494 13.6556 11.1103 12.9947 11.4097C11.3435 12.1576 9.48363 14.5929 11.3505 17.9579C11.6152 18.385 11.9531 18.7608 12.3484 19.0675C16.6069 21.8406 19.4179 17.6103 19.4179 17.6103L24.0787 10.9495L32.5877 6.77413L29.0125 11.1335L22.2235 20.6953C22.2235 20.6953 20.0488 23.6201 17.0179 24.2118C13.987 24.8034 11.3506 23.2179 11.3506 23.2179C11.3506 23.2179 5.61597 20.9282 6.74058 13.8115C7.86519 6.69475 14.0639 6.77413 14.0639 6.77413L26.4822 6.77413C26.4822 6.77413 29.1913 3.10314 33.2678 1.1989C34.3434 0.696342 35.9102 0.317455 37.0718 0.158757C38.4857 -0.0343859 42.4765 -0.335448 46.1267 1.22906C50.3854 3.05438 54.4257 7.2644 54.9886 14.8702C55.1048 18.471 54.345 21.0405 53.0922 23.2179C51.3579 26.2323 48.7032 28.3429 46.2385 29.4826C42.9377 31.0091 39.9726 31 39.9726 31L39.9726 26.8274C39.9726 26.8274 43.6346 26.3919 46.0472 24.8456C47.7693 23.4917 49.2679 21.8076 50.0719 19.7472C50.7222 18.0809 50.927 16.2235 50.927 14.8702C50.927 11.1793 48.3618 7.3713 45.5315 5.74748C41.825 3.47424 37.8188 4.14822 37.8188 4.14822C37.8188 4.14822 36.2727 4.49104 34.965 5.10606C33.6572 5.72108 32.5877 6.77411 32.5877 6.77411L39.9726 6.77411C39.9726 6.77411 41.3373 6.86622 41.9523 7.04214C50.5526 9.50208 48.6126 17.1625 48.2685 18.1733C47.9244 19.1841 46.1242 23.8754 40.5855 24.3114C35.0468 24.7473 31.5577 19.0675 31.5577 19.0675C31.5577 19.0675 28.1653 23.3569 25.9498 25.7857C24.7778 27.0705 23.4091 28.1386 21.9401 28.8984C20.6309 29.5757 19.2964 30.3502 16.5573 30.6216C10.7417 31.1976 7.2112 29.1229 4.7713 26.8274C2.3314 24.5319 0.000220386 19.8212 0.000220586 15.2438C0.000220786 10.6664 2.37071 6.75968 3.7408 5.19988C5.1109 3.64008 7.28643 2.20194 9.3253 1.4897C12.0619 0.533582 15.3288 0.158756 15.3288 0.158756Z" fill="white"/>
</g>
<defs>
<clipPath id="clip0_27_602">
<rect width="31" height="55" fill="white" transform="translate(55) rotate(90)"/>
</clipPath>
</defs>
</svg>
